<svg t="1740756070420" class="icon" viewBox="0 0 1024 1024" version="1.1" xmlns="http://www.w3.org/2000/svg" p-id="2379" width="200" height="200"><path d="M882.56 325.44l-34.24-56.96a48.32 48.32 0 0 1-6.72-15.68l-16-64a140.8 140.8 0 0 0-103.36-103.04l-64-16a64 64 0 0 1-16-6.72L584.96 28.16a140.8 140.8 0 0 0-145.92 0L382.08 64a54.08 54.08 0 0 1-16 6.4l-64 16.32A140.8 140.8 0 0 0 198.4 188.16l-16 64a47.36 47.36 0 0 1-6.72 16l-34.24 57.28a142.72 142.72 0 0 0 0 146.24l34.24 56.64a53.44 53.44 0 0 1 6.72 16l16 64a141.76 141.76 0 0 0 71.68 90.88v219.2a91.52 91.52 0 0 0 40.64 75.84 90.56 90.56 0 0 0 85.44 8.96l101.44-41.28a23.36 23.36 0 0 1 20.16 0l94.08 44.48a89.6 89.6 0 0 0 39.36 8.96 93.44 93.44 0 0 0 48.96-14.08 91.52 91.52 0 0 0 42.56-77.44V704a141.76 141.76 0 0 0 82.88-96l16-64a53.44 53.44 0 0 1 6.72-16l34.24-56.96a142.08 142.08 0 0 0 0-145.6z m-226.88 606.08a7.68 7.68 0 0 1-8 0l-94.4-44.8a107.2 107.2 0 0 0-87.04-2.56l-101.44 41.92a8.64 8.64 0 0 1-7.68 0 8.32 8.32 0 0 1-5.12-7.68v-193.6l12.8 3.2a64 64 0 0 1 16 6.72L439.04 768a142.08 142.08 0 0 0 145.92 0l56.96-32a64 64 0 0 1 16-6.72h1.6v196.8a8 8 0 0 1-3.84 5.44z m155.52-502.72l-34.24 56.64a135.68 135.68 0 0 0-16 38.72l-16.32 64A57.28 57.28 0 0 1 704 630.72h-2.56a38.08 38.08 0 0 0-21.44 7.04l-41.92 10.24a152 152 0 0 0-38.72 16l-57.28 33.6a57.92 57.92 0 0 1-60.16 0l-56.96-34.24a152 152 0 0 0-38.72-16l-64-16a58.56 58.56 0 0 1-42.88-42.56l-16.32-64a135.68 135.68 0 0 0-16-38.72L212.8 428.8a58.56 58.56 0 0 1 0-60.48l34.24-56.64a134.08 134.08 0 0 0 16-39.04l16.32-64a57.6 57.6 0 0 1 42.56-42.56l64-16a147.52 147.52 0 0 0 38.72-16l56.96-34.24a58.56 58.56 0 0 1 60.16 0l56.96 33.92a138.24 138.24 0 0 0 38.72 16.32l64 16a57.6 57.6 0 0 1 42.56 42.56l16.32 64a130.24 130.24 0 0 0 16 38.4l34.24 56.96a58.56 58.56 0 0 1 0.64 60.8z" p-id="2380" fill="#1677ff"></path></svg>