<svg t="1740765389828" class="icon" viewBox="0 0 1024 1024" version="1.1" xmlns="http://www.w3.org/2000/svg" p-id="3556" width="200" height="200"><path d="M340.906667 256h342.186666a5.333333 5.333333 0 0 0 5.333334-5.333333v-32a176.426667 176.426667 0 0 0-352.853334 0v32a5.333333 5.333333 0 0 0 5.333334 5.333333z m77.013333-76a101.866667 101.866667 0 0 1 188.16 0 1.12 1.12 0 0 1-1.013333 1.493333h-186.133334a1.12 1.12 0 0 1-1.013333-1.493333z" p-id="3557" fill="#515151"></path><path d="M848 181.333333h-113.866667a5.333333 5.333333 0 0 0-5.333333 5.333334v64a5.333333 5.333333 0 0 0 5.333333 5.333333H773.333333a5.333333 5.333333 0 0 1 5.333334 5.333333v640a5.333333 5.333333 0 0 1-5.333334 5.333334H250.666667a5.333333 5.333333 0 0 1-5.333334-5.333334V261.333333a5.333333 5.333333 0 0 1 5.333334-5.333333h39.2a5.333333 5.333333 0 0 0 5.333333-5.333333V186.666667a5.333333 5.333333 0 0 0-5.333333-5.333334H176a5.333333 5.333333 0 0 0-5.333333 5.333334v789.333333a5.333333 5.333333 0 0 0 5.333333 5.333333h672a5.333333 5.333333 0 0 0 5.333333-5.333333V186.666667a5.333333 5.333333 0 0 0-5.333333-5.333334z" p-id="3558" fill="#515151"></path><path d="M430.453333 394.346667m5.333334 0l289.546666 0q5.333333 0 5.333334 5.333333l0 64q0 5.333333-5.333334 5.333333l-289.546666 0q-5.333333 0-5.333334-5.333333l0-64q0-5.333333 5.333334-5.333333Z" p-id="3559" fill="#515151"></path><path d="M341.333333 431.68m-48 0a48 48 0 1 0 96 0 48 48 0 1 0-96 0Z" p-id="3560" fill="#515151"></path><path d="M430.453333 555.733333m5.333334 0l289.546666 0q5.333333 0 5.333334 5.333334l0 64q0 5.333333-5.333334 5.333333l-289.546666 0q-5.333333 0-5.333334-5.333333l0-64q0-5.333333 5.333334-5.333334Z" p-id="3561" fill="#515151"></path><path d="M341.333333 593.066667m-48 0a48 48 0 1 0 96 0 48 48 0 1 0-96 0Z" p-id="3562" fill="#515151"></path><path d="M430.453333 717.12m5.333334 0l289.546666 0q5.333333 0 5.333334 5.333333l0 64q0 5.333333-5.333334 5.333334l-289.546666 0q-5.333333 0-5.333334-5.333334l0-64q0-5.333333 5.333334-5.333333Z" p-id="3563" fill="#515151"></path><path d="M341.333333 754.453333m-48 0a48 48 0 1 0 96 0 48 48 0 1 0-96 0Z" p-id="3564" fill="#515151"></path></svg>